PathFileType	3	(X/Y/Z)	E:\ViconData\BIOM9541 2025\Week 7\Wed1100\Hanif high squat 2-5 Squat 01.trc
DataRate	CameraRate	NumFrames	NumMarkers	Units	OrigDataRate	OrigDataStartFrame	OrigNumFrames
200.0	200.0	15	19	mm	200.0	502	1337	
Frame#	Time	C7			CLAV			RBAK			LASI			RASI			LPSI			RPSI			LTHI			LKNE			LTIB			LANK			LHEE			LTOE			RTHI			RKNE			RTIB			RANK			RHEE			RTOE			
		X1	Y1	Z1	X2	Y2	Z2	X3	Y3	Z3	X4	Y4	Z4	X5	Y5	Z5	X6	Y6	Z6	X7	Y7	Z7	X8	Y8	Z8	X9	Y9	Z9	X10	Y10	Z10	X11	Y11	Z11	X12	Y12	Z12	X13	Y13	Z13	X14	Y14	Z14	X15	Y15	Z15	X16	Y16	Z16	X17	Y17	Z17	X18	Y18	Z18	X19	Y19	Z19	
502	2.505	297.93118	1246.3118	-1204.8396	157.4223	1163.8693	-1198.1615	327.40689	1167.1613	-1352.8835	228.63785	800.81305	-1082.1257	227.9637	811.1888	-1339.4751	398.8557	865.1114	-1162.3209	399.7996	862.687	-1235.9819	190.96852	533.92535	-940.11603	156.82587	398.40381	-923.67975	240.78841	202.4493	-924.92432	299.58267	64.865578	-956.23376	323.54742	51.404274	-1016.5514	162.54257	37.715816	-928.28491	265.91428	683.16168	-1418.9548	171.04752	397.63351	-1478.9902	200.66217	314.47452	-1488.6356	295.39453	73.650833	-1448.5385	321.78354	50.792614	-1380.507	162.30212	40.571579	-1477.4148	
503	2.51	297.88589	1243.2416	-1204.8676	157.44653	1160.7026	-1198.2247	327.36768	1164.3239	-1352.9875	229.69998	797.79724	-1082.1724	228.7276	808.3092	-1339.6108	399.8064	862.2884	-1162.3705	400.7531	859.8758	-1236.3639	190.76527	532.74756	-940.23511	155.00996	397.67398	-922.70465	240.0502	202.12007	-924.48376	299.40732	64.861565	-956.15247	323.51831	51.438438	-1016.5302	162.55565	37.723392	-928.23926	266.34738	681.40704	-1419.2834	168.9749	396.82629	-1479.9779	198.94151	313.91718	-1489.4832	295.1561	73.742439	-1448.6128	321.71902	50.88974	-1380.4204	162.34203	40.588665	-1477.3718	
504	2.515	297.84445	1240.1558	-1204.8752	156.9355	1158.0344	-1197.8989	327.30634	1161.3268	-1353.1221	230.84586	794.68671	-1082.5728	229.4917	805.4276	-1339.734	400.7611	859.3628	-1162.4985	401.8876	856.4046	-1237.2411	189.87242	531.70154	-939.26233	153.21468	396.86838	-921.78754	239.15704	201.73807	-923.97913	299.25903	64.879967	-956.08246	323.47232	51.502949	-1016.4721	162.56613	37.748547	-928.21155	266.71283	679.61249	-1419.4937	166.90031	396.02649	-1480.9835	197.20023	313.37549	-1490.2921	294.9183	73.760033	-1448.6575	321.65884	50.946819	-1380.3281	162.37482	40.676579	-1477.3512	
505	2.52	297.8678	1237.0414	-1204.9546	157.39557	1154.2922	-1198.196	327.30414	1158.4153	-1353.3075	231.84885	791.56757	-1082.4563	230.2919	802.4226	-1339.8807	401.7175	856.3511	-1162.9105	402.8035	853.5322	-1237.6084	189.32558	530.52582	-938.95483	151.41238	396.24707	-920.81805	238.35172	201.43137	-923.65363	299.18616	64.930817	-956.11792	323.45819	51.581642	-1016.5417	162.57117	37.769905	-928.1922	267.10156	677.99567	-1420.127	164.9265	395.16766	-1481.9768	195.40375	312.71573	-1491.1636	294.70673	73.694977	-1448.7723	321.62668	50.951138	-1380.3716	162.40239	40.647564	-1477.3197	
506	2.525	297.89151	1233.8647	-1205.0406	157.52533	1150.8958	-1198.2153	327.30011	1155.431	-1353.4165	232.88292	788.40289	-1082.579	230.7414	799.689	-1340.5084	402.689	853.2708	-1163.3678	403.6789	850.6623	-1237.8866	188.75269	529.60449	-938.55164	149.64378	395.59763	-919.91071	237.4939	201.23035	-923.1377	299.12775	64.995872	-956.15369	323.47009	51.657471	-1016.6335	162.53604	37.839596	-928.26208	267.55713	675.83765	-1420.1057	162.92072	394.24557	-1482.9719	193.58942	311.95245	-1491.9753	294.52802	73.547218	-1448.8444	321.62589	50.884792	-1380.4983	162.43951	40.615063	-1477.3257	
507	2.53	297.92914	1230.6405	-1205.1735	157.09351	1147.9351	-1197.9548	327.30008	1152.4008	-1353.6321	234.02664	785.25885	-1082.8735	231.759	796.4034	-1340.1655	403.6306	850.2171	-1163.8302	404.1585	848.1601	-1237.5219	188.26601	528.58319	-938.19037	147.9175	394.89749	-919.078	236.64995	200.86455	-922.8822	299.08405	65.064186	-956.22864	323.37634	51.66629	-1016.6612	162.73021	38.128193	-928.08771	267.89371	673.96106	-1420.4307	160.94432	393.32669	-1483.918	191.78963	311.21384	-1492.7362	294.14825	73.390388	-1448.7888	322.00897	50.960289	-1381.0681	162.467	40.599194	-1477.3049	
508	2.535	297.87231	1227.3966	-1205.2452	157.13284	1144.5775	-1198.0005	327.21732	1149.2502	-1353.7834	234.98145	781.96924	-1082.8473	232.5252	793.2068	-1340.2454	404.5725	847.2087	-1164.1342	405.4007	844.712	-1238.5242	187.71078	527.49884	-937.74072	146.22029	394.24939	-918.19403	235.73296	200.58722	-922.43469	299.02881	65.120247	-956.3006	323.2627	51.71685	-1016.6375	163.08258	37.743084	-928.08411	268.20453	672.08588	-1420.7538	159.03325	392.50223	-1484.8765	190.00864	310.55484	-1493.5295	293.96667	73.418327	-1448.8202	321.95786	51.084919	-1381.012	162.46683	40.665756	-1477.2815	
509	2.54	297.85995	1224.0795	-1205.3314	157.2086	1141.0837	-1198.0223	327.15701	1146.0791	-1353.9999	236.12383	778.68469	-1083.1429	233.0284	790.4544	-1340.8673	405.4084	844.0911	-1164.0049	406.1398	841.4574	-1238.8181	187.17943	526.26123	-937.32672	144.54303	393.47269	-917.26758	234.90932	200.25482	-922.06299	298.85159	65.202431	-956.19733	323.24274	51.810822	-1016.6486	162.53284	37.831432	-928.30017	268.58093	670.15942	-1421.0996	157.11053	391.63248	-1485.8635	188.2802	309.8031	-1494.2645	293.81409	73.487442	-1448.8535	321.85797	51.216782	-1380.8174	162.49179	40.731205	-1477.267	
510	2.545	297.85812	1220.6769	-1205.4436	157.74866	1137.0956	-1198.4713	327.07626	1142.8376	-1354.1964	237.03479	775.26776	-1083.151	234.0207	786.9825	-1340.4736	406.2915	841.024	-1164.2441	406.5517	838.6594	-1238.5242	186.65047	524.9743	-936.93793	142.8454	392.71249	-916.39056	234.02748	199.93129	-921.66156	298.76794	65.221039	-956.216	323.19559	51.856483	-1016.64	162.5582	38.196213	-928.11078	268.98853	668.16559	-1421.4984	155.24916	390.72192	-1486.8201	186.57971	309.08252	-1495.0188	293.6803	73.475266	-1448.8884	321.80692	51.316395	-1380.7465	162.54173	40.791626	-1477.297	
511	2.55	297.86588	1217.2361	-1205.5552	157.77881	1133.541	-1198.4565	326.98218	1139.5464	-1354.2786	238.19397	771.91333	-1083.5013	234.572	784.0404	-1341.0857	407.1917	837.7976	-1164.4944	407.6813	835.6921	-1239.0543	186.15381	523.75922	-936.5249	141.17389	391.94727	-915.52118	233.25795	199.6774	-921.22266	298.64694	65.221619	-956.19012	323.17508	51.861382	-1016.616	162.58083	38.118523	-928.15411	269.29578	666.13434	-1421.887	153.36745	389.61093	-1487.7197	184.98683	308.28943	-1495.8011	293.50732	73.456787	-1448.921	321.69476	51.326595	-1380.7047	162.57675	40.707672	-1477.2415	
512	2.555	297.87112	1213.785	-1205.6216	157.77887	1129.8989	-1198.5015	326.95972	1136.2397	-1354.4591	239.10547	768.45032	-1083.5342	235.526	780.5353	-1340.7432	408.1199	834.4376	-1164.9801	408.3234	832.468	-1239.1089	185.66486	522.59918	-936.13306	139.61185	391.2048	-914.62744	232.40269	199.38066	-920.77802	298.74646	65.348465	-956.10297	323.23489	52.011223	-1016.6971	162.53391	38.101139	-928.1839	269.60898	663.9931	-1422.2457	151.53601	388.54843	-1488.7347	183.44814	307.47894	-1496.6606	293.33295	73.332939	-1448.9515	321.66187	51.32449	-1380.7797	162.54466	40.684025	-1477.2598	
513	2.56	297.89325	1210.3163	-1205.7335	157.42531	1126.8125	-1198.3829	326.93115	1132.86	-1354.6151	240.18629	764.9754	-1083.8079	236.2279	777.1981	-1340.8654	409.0638	831.0858	-1165.5087	409.129	829.2743	-1239.3876	185.20982	521.27136	-935.87219	138.08197	390.44907	-913.80432	231.7605	199.08731	-920.44769	298.69574	65.377869	-956.12103	323.15735	51.990303	-1016.672	162.42973	38.086567	-928.17914	269.93982	661.85217	-1422.6635	149.80119	387.57678	-1489.8092	181.86818	306.64621	-1497.4696	293.13229	73.202202	-1448.9867	321.6185	51.330425	-1380.8983	162.4994	40.655178	-1477.2465	
514	2.565	297.88464	1206.8384	-1205.7792	157.82257	1122.7078	-1198.4895	326.80753	1129.4247	-1354.614	241.28438	761.3197	-1084.0894	237.0062	773.9406	-1341.0557	409.9464	827.7529	-1165.6162	410.1193	826.0256	-1239.9015	185.16089	519.95209	-936.24286	136.63556	389.66412	-912.96906	231.04626	198.7384	-920.06024	298.40027	65.246635	-956.2486	323.00739	51.926918	-1016.6219	162.35716	38.125599	-928.22131	270.25568	659.67773	-1423.068	148.08798	386.59177	-1490.8417	180.38718	305.89502	-1498.2487	292.93433	73.19017	-1448.9819	321.51337	51.37891	-1380.7957	162.5005	40.678654	-1477.2402	
515	2.57	297.87939	1203.3317	-1205.8243	157.86855	1119.1287	-1198.6327	326.8175	1125.9672	-1354.8041	242.25613	757.82532	-1084.1355	237.711	770.5883	-1341.2318	410.8452	824.4831	-1165.7711	410.8998	822.6204	-1240.1874	184.73785	518.76178	-935.96289	135.19917	388.88596	-912.16565	230.409	198.34915	-919.82953	298.32797	65.253304	-956.25275	322.95502	51.97789	-1016.6277	162.31746	38.181087	-928.25854	270.60471	657.56	-1423.4574	146.39224	385.65555	-1491.8574	178.96117	305.14081	-1499.0569	292.79092	73.221489	-1448.9509	321.42078	51.47998	-1380.6919	162.5274	40.723457	-1477.2529	
516	2.575	297.83347	1199.7542	-1205.9017	157.92548	1115.3958	-1198.6311	326.87842	1122.5889	-1354.92	243.32498	754.14337	-1084.4174	238.4466	767.2327	-1341.3839	411.7382	821.2264	-1166.0864	411.7371	819.4627	-1240.3912	183.83624	517.4751	-934.82678	133.80809	388.06281	-911.35901	229.72014	198.04988	-919.47845	298.2793	65.247223	-956.26593	322.87827	51.961246	-1016.6406	162.29349	38.207127	-928.35614	271.02081	655.29034	-1423.8561	144.81219	384.67731	-1492.9186	177.63901	304.36777	-1499.9492	292.66919	73.198051	-1448.9728	321.3692	51.572227	-1380.6482	162.56174	40.778507	-1477.3079	
